<svg xmlns="http://www.w3.org/2000/svg" width="64" height="64" viewBox="0 0 512 512">
  <defs>
    <linearGradient id="bg" x1="0" y1="0" x2="0" y2="1"><stop offset="0" stop-color="#86c25f"/><stop offset="1" stop-color="#5a9640"/></linearGradient>
    <clipPath id="round"><rect width="512" height="512" rx="110"/></clipPath>
  </defs>
  <g clip-path="url(#round)">
    <rect width="512" height="512" fill="url(#bg)"/>
    <g transform="translate(36 60) scale(1.1)">
  <title id="catTitle">Tilcayo cat sitting on the grass</title>
  <defs>
    <radialGradient id="furG" cx="50%" cy="40%" r="70%">
      <stop offset="0" stop-color="#e29a5c"/>
      <stop offset="0.6" stop-color="#c8743a"/>
      <stop offset="1" stop-color="#9c5424"/>
    </radialGradient>
    <radialGradient id="headG" cx="50%" cy="35%" r="70%">
      <stop offset="0" stop-color="#e8a466"/>
      <stop offset="0.65" stop-color="#cf7b3f"/>
      <stop offset="1" stop-color="#a55b28"/>
    </radialGradient>
    <linearGradient id="whiteG" x1="0" y1="0" x2="0" y2="1">
      <stop offset="0" stop-color="#fbf7ef"/>
      <stop offset="1" stop-color="#e6d9c4"/>
    </linearGradient>
    <radialGradient id="eyeG" cx="50%" cy="50%" r="50%">
      <stop offset="0" stop-color="#d9a640"/>
      <stop offset="0.7" stop-color="#a8731f"/>
      <stop offset="1" stop-color="#5d3d0c"/>
    </radialGradient>
    <clipPath id="eyeL"><ellipse cx="163" cy="176" rx="19" ry="13"/></clipPath>
    <clipPath id="eyeR"><ellipse cx="237" cy="176" rx="19" ry="13"/></clipPath>
    <clipPath id="bodyClip"><path d="M70 405 C60 300 95 235 200 232 C305 235 340 300 330 405 Z"/></clipPath>
    <clipPath id="headClip"><path d="M118 168 C118 108 150 86 200 86 C250 86 282 108 282 168 C282 220 250 246 200 246 C150 246 118 220 118 168 Z"/></clipPath>
  </defs>

  <ellipse cx="200" cy="404" rx="150" ry="16" fill="#000" opacity="0.18"/>

  <path d="M70 405 C60 300 95 235 200 232 C305 235 340 300 330 405 Z" fill="url(#furG)"/>
  <g clip-path="url(#bodyClip)">
    <g fill="#d98a4a" stroke="#1e1410" stroke-width="7" stroke-linejoin="round">
      <path d="M96 292c10-10 28-7 32 6 3 12-8 24-20 22-12-2-22-17-12-28z"/>
      <path d="M86 338c9-12 30-9 34 5 3 13-9 24-22 22-12-2-22-15-12-27z"/>
      <path d="M112 374c8-10 25-8 29 3 3 10-6 20-17 18-11-2-20-12-12-21z"/>
      <path d="M122 258c7-9 22-6 25 3 3 9-5 17-13 16-9-1-18-10-12-19z"/>
      <path d="M304 292c-10-10-28-7-32 6-3 12 8 24 20 22 12-2 22-17 12-28z"/>
      <path d="M314 338c-9-12-30-9-34 5-3 13 9 24 22 22 12-2 22-15 12-27z"/>
      <path d="M288 374c-8-10-25-8-29 3-3 10 6 20 17 18 11-2 20-12 12-21z"/>
      <path d="M278 258c-7-9-22-6-25 3-3 9 5 17 13 16 9-1 18-10 12-19z"/>
    </g>
    <g fill="#1e1410">
      <path d="M150 250c6-2 12 2 11 8s-8 8-13 5-4-11 2-13z"/>
      <path d="M250 250c-6-2-12 2-11 8s8 8 13 5 4-11-2-13z"/>
      <path d="M96 392c5-6 15-5 18 1 3 6-3 12-9 12-6-1-13-7-9-13z" opacity=".85"/>
      <path d="M304 392c-5-6-15-5-18 1-3 6 3 12 9 12 6-1 13-7 9-13z" opacity=".85"/>
      <path d="M74 320c4-4 10-3 12 1 2 5-2 9-7 8-5 0-9-5-5-9z" opacity=".8"/>
      <path d="M326 320c-4-4-10-3-12 1-2 5 2 9 7 8 5 0 9-5 5-9z" opacity=".8"/>
    </g>
  </g>
  <path d="M158 250 C170 240 230 240 242 250 C250 300 244 350 235 400 L165 400 C156 350 150 300 158 250 Z" fill="url(#whiteG)"/>
  <g fill="#2a1a12" opacity=".85">
    <path d="M166 296c6-2 14 0 14 5s-8 7-13 4-5-7-1-9z"/>
    <path d="M234 296c-6-2-14 0-14 5s8 7 13 4 5-7 1-9z"/>
    <path d="M170 322c6-2 12 0 12 5s-7 7-11 4-4-7-1-9z"/>
    <path d="M230 322c-6-2-12 0-12 5s7 7 11 4 4-7 1-9z"/>
    <path d="M176 348c5-2 10 0 10 4s-6 6-9 3-3-5-1-7z"/>
    <path d="M224 348c-5-2-10 0-10 4s6 6 9 3 3-5 1-7z"/>
  </g>
  <g>
    <path d="M140 300 C130 340 128 375 134 402 L182 402 C186 372 182 340 178 300 Z" fill="url(#furG)"/>
    <path d="M260 300 C270 340 272 375 266 402 L218 402 C214 372 218 340 222 300 Z" fill="url(#furG)"/>
    <g fill="#1e1410">
      <path d="M144 330c6-2 12 1 12 6s-6 8-11 6-7-10-1-12z"/>
      <path d="M140 360c6-2 12 1 12 6s-6 8-11 6-7-10-1-12z"/>
      <path d="M256 330c-6-2-12 1-12 6s6 8 11 6 7-10 1-12z"/>
      <path d="M260 360c-6-2-12 1-12 6s6 8 11 6 7-10 1-12z"/>
    </g>
    <ellipse cx="156" cy="402" rx="30" ry="12" fill="#d8894a"/>
    <ellipse cx="244" cy="402" rx="30" ry="12" fill="#d8894a"/>
    <g fill="#a55b28" opacity=".55">
      <ellipse cx="144" cy="404" rx="5" ry="4"/><ellipse cx="156" cy="405" rx="5" ry="4"/><ellipse cx="168" cy="404" rx="5" ry="4"/>
      <ellipse cx="232" cy="404" rx="5" ry="4"/><ellipse cx="244" cy="405" rx="5" ry="4"/><ellipse cx="256" cy="404" rx="5" ry="4"/>
    </g>
  </g>

  <g class="ear ear-l">
    <path d="M124 150 C112 110 118 70 132 46 C160 66 182 82 190 100 Z" fill="#b8652f"/>
    <path d="M132 138 C126 110 128 84 136 64 C156 78 172 90 178 102 Z" fill="#e6a68f"/>
    <path d="M128 132 C127 118 130 104 136 92" stroke="#fbf1e6" stroke-width="5" stroke-linecap="round" fill="none" opacity=".9"/>
    <path d="M130 56 C140 60 150 66 158 72" stroke="#1e1410" stroke-width="7" stroke-linecap="round" fill="none"/>
  </g>
  <g class="ear ear-r">
    <path d="M276 150 C288 110 282 70 268 46 C240 66 218 82 210 100 Z" fill="#b8652f"/>
    <path d="M268 138 C274 110 272 84 264 64 C244 78 228 90 222 102 Z" fill="#e6a68f"/>
    <path d="M272 132 C273 118 270 104 264 92" stroke="#fbf1e6" stroke-width="5" stroke-linecap="round" fill="none" opacity=".9"/>
    <path d="M270 56 C260 60 250 66 242 72" stroke="#1e1410" stroke-width="7" stroke-linecap="round" fill="none"/>
  </g>

  <path d="M118 168 C118 108 150 86 200 86 C250 86 282 108 282 168 C282 220 250 246 200 246 C150 246 118 220 118 168 Z" fill="url(#headG)"/>
  <g clip-path="url(#headClip)">
    <path d="M187 88 C184 108 183 128 186 146" stroke="#1e1410" stroke-width="9" stroke-linecap="round" fill="none"/>
    <path d="M213 88 C216 108 217 128 214 146" stroke="#1e1410" stroke-width="9" stroke-linecap="round" fill="none"/>
    <path d="M165 92 C160 110 158 126 160 140" stroke="#1e1410" stroke-width="4" stroke-linecap="round" fill="none" opacity=".85"/>
    <path d="M235 92 C240 110 242 126 240 140" stroke="#1e1410" stroke-width="4" stroke-linecap="round" fill="none" opacity=".85"/>
    <path d="M200 92 L200 150" stroke="#e8b57f" stroke-width="7" stroke-linecap="round" opacity=".7"/>
    <path d="M136 150c4-5 12-4 14 1 2 6-3 10-8 9-5 0-10-6-6-10z" fill="#1e1410"/>
    <path d="M264 150c-4-5-12-4-14 1-2 6 3 10 8 9 5 0 10-6 6-10z" fill="#1e1410"/>
    <path d="M132 176 C136 196 146 212 158 224" stroke="#1e1410" stroke-width="6" stroke-linecap="round" fill="none"/>
    <path d="M268 176 C264 196 254 212 242 224" stroke="#1e1410" stroke-width="6" stroke-linecap="round" fill="none"/>
  </g>
  <path d="M148 200 C150 180 176 176 200 182 C224 176 250 180 252 200 C252 226 232 246 200 246 C168 246 148 226 148 200 Z" fill="url(#whiteG)"/>
  <path d="M141 170 C150 158 176 160 184 172" stroke="#f6e8d4" stroke-width="5" stroke-linecap="round" fill="none" opacity=".85"/>
  <path d="M259 170 C250 158 224 160 216 172" stroke="#f6e8d4" stroke-width="5" stroke-linecap="round" fill="none" opacity=".85"/>

  <g class="eye" clip-path="url(#eyeL)">
    <ellipse cx="163" cy="176" rx="19" ry="13" fill="url(#eyeG)"/>
    <ellipse class="pupil" cx="164" cy="178" rx="5" ry="10" fill="#0d0806"/>
    <circle cx="158" cy="172" r="3" fill="#fff" opacity=".8"/>
    <path class="lid" d="M140 160 L190 160 L190 171 C176 165 152 165 140 171 Z" fill="#c8743a"/>
  </g>
  <g class="eye" clip-path="url(#eyeR)">
    <ellipse cx="237" cy="176" rx="19" ry="13" fill="url(#eyeG)"/>
    <ellipse class="pupil" cx="236" cy="178" rx="5" ry="10" fill="#0d0806"/>
    <circle cx="232" cy="172" r="3" fill="#fff" opacity=".8"/>
    <path class="lid" d="M210 160 L260 160 L260 171 C246 165 224 165 210 171 Z" fill="#c8743a"/>
  </g>
  <path d="M143 172 C152 165 174 165 183 173" stroke="#1e1410" stroke-width="3.5" stroke-linecap="round" fill="none"/>
  <path d="M257 172 C248 165 226 165 217 173" stroke="#1e1410" stroke-width="3.5" stroke-linecap="round" fill="none"/>
  <path d="M178 182 C183 186 186 188 190 190" stroke="#1e1410" stroke-width="3" stroke-linecap="round" fill="none"/>
  <path d="M222 182 C217 186 214 188 210 190" stroke="#1e1410" stroke-width="3" stroke-linecap="round" fill="none"/>

  <path d="M188 190 C192 200 208 200 212 190 C208 184 192 184 188 190 Z" fill="#d78a4e"/>
  <path d="M188 204 C190 198 210 198 212 204 C210 212 204 217 200 218 C196 217 190 212 188 204 Z" fill="#4a2f2a"/>
  <path d="M192 203 C196 201 204 201 208 203" stroke="#7c5148" stroke-width="2" stroke-linecap="round" fill="none"/>
  <path d="M200 218 L200 224" stroke="#2a1a12" stroke-width="2.5" stroke-linecap="round"/>
  <path d="M186 226 C192 230 197 228 200 224 C203 228 208 230 214 226" stroke="#2a1a12" stroke-width="2.5" stroke-linecap="round" fill="none"/>
  <path class="tongue" d="M193 226 C194 236 206 236 207 226 C204 229 196 229 193 226 Z" fill="#ec8fa0"/>
  <g fill="#2a1a12">
    <circle cx="178" cy="212" r="1.6"/><circle cx="172" cy="220" r="1.6"/><circle cx="179" cy="228" r="1.6"/>
    <circle cx="222" cy="212" r="1.6"/><circle cx="228" cy="220" r="1.6"/><circle cx="221" cy="228" r="1.6"/>
  </g>
  <g stroke="#fbf5ea" stroke-width="2" stroke-linecap="round" fill="none" opacity=".95">
    <path d="M176 212 C140 202 110 200 80 206"/>
    <path d="M172 220 C136 220 106 226 78 236"/>
    <path d="M176 228 C142 236 114 246 92 262"/>
    <path d="M224 212 C260 202 290 200 320 206"/>
    <path d="M228 220 C264 220 294 226 322 236"/>
    <path d="M224 228 C258 236 286 246 308 262"/>
  </g>

</g>
  </g>
</svg>
